<?xml version="1.0" standalone="no"?>
<!DOCTYPE svg PUBLIC "-//W3C//DTD SVG 20010904//EN"
 "http://www.w3.org/TR/2001/REC-SVG-20010904/DTD/svg10.dtd">
<svg version="1.0" xmlns="http://www.w3.org/2000/svg"
 width="1080.000000pt" height="1080.000000pt" viewBox="0 0 1080.000000 1080.000000"
 preserveAspectRatio="xMidYMid meet">

<g transform="translate(0.000000,1080.000000) scale(0.100000,-0.100000)"
fill="#000000" stroke="none">
<path d="M4190 9016 c-170 -47 -301 -156 -380 -314 -62 -125 -60 -77 -60
-1445 0 -1398 -4 -1322 72 -1470 49 -94 157 -201 251 -247 131 -63 57 -60
1454 -60 880 0 1288 3 1325 11 146 30 312 156 382 289 20 38 45 104 56 146 19
75 20 116 20 1318 0 752 -4 1264 -10 1300 -37 228 -207 412 -435 472 -71 19
-2607 19 -2675 0z m2680 -257 c100 -47 170 -140 190 -251 7 -36 9 -489 8
-1289 l-3 -1234 -31 -65 c-38 -80 -91 -134 -164 -169 l-55 -26 -1285 0 -1285
0 -55 26 c-73 35 -126 89 -164 169 l-31 65 -3 1234 c-1 800 1 1253 8 1289 22
121 94 211 206 257 l59 25 1275 -3 1275 -2 55 -26z"/>
<path d="M4740 7760 l0 -70 50 0 50 0 0 -357 c0 -387 6 -448 53 -539 79 -153
276 -235 497 -206 48 7 209 12 359 12 l272 0 -3 68 -3 67 -62 3 c-73 3 -69 -5
-77 148 l-6 101 83 7 c247 21 399 97 457 229 32 73 44 168 31 254 -21 144
-100 245 -228 293 -115 43 -178 51 -465 57 l-278 6 0 -72 0 -71 50 0 50 0 0
-400 c0 -442 1 -430 -64 -487 -46 -41 -96 -56 -167 -51 -71 5 -122 40 -156
108 -23 44 -23 49 -23 437 l0 393 45 0 46 0 -3 68 -3 67 -252 3 -253 2 0 -70z
m1266 -105 c23 -13 54 -38 68 -55 53 -64 71 -196 40 -301 -27 -92 -126 -169
-218 -169 l-26 0 0 281 0 282 47 -7 c25 -3 65 -17 89 -31z"/>
</g>
</svg>
